<svg width="20" height="23" viewBox="0 0 20 23" fill="none" xmlns="http://www.w3.org/2000/svg">
<path d="M10.0001 8.57113C8.86349 8.57098 7.7735 8.11932 6.9699 7.31552C6.16631 6.51172 5.71494 5.42162 5.71509 4.28502C5.71524 3.14842 6.16689 2.05843 6.97069 1.25483C7.77449 0.451239 8.8646 -0.000132048 10.0012 1.52949e-05C11.1378 0.000162637 12.2278 0.451817 13.0314 1.25562C13.835 2.05942 14.2863 3.14953 14.2862 4.28613C14.2861 5.42273 13.8344 6.51272 13.0306 7.31631C12.2268 8.1199 11.1367 8.57127 10.0001 8.57113Z" fill="#B2A1FF"/>
<path d="M3.33333 8.88774C2.52047 8.89096 1.70964 8.96907 0.911111 9.12108C0.655668 9.16694 0.424468 9.30112 0.257923 9.50016C0.0913789 9.6992 8.50722e-05 9.95044 0 10.21V19.3766C0.000519927 19.5396 0.0365933 19.7005 0.105702 19.848C0.174811 19.9956 0.275291 20.1263 0.400131 20.2311C0.52497 20.3358 0.671161 20.4121 0.828502 20.4545C0.985844 20.4969 1.15054 20.5044 1.31111 20.4766C1.97744 20.3468 2.65449 20.2799 3.33333 20.2766C5.48563 20.2745 7.59121 20.9042 9.38889 22.0877C9.57333 22.2 9.78444 22.2611 10 22.2655V10.6877C7.97658 9.50751 5.67581 8.8863 3.33333 8.88774Z" fill="#7D64EC"/>
<path d="M19.0889 9.12107C15.9695 8.52428 12.7396 9.08103 10 10.6877V22.2655C10.2156 22.2611 10.4267 22.2 10.6111 22.0877C12.4088 20.9042 14.5144 20.2745 16.6667 20.2766C17.3456 20.28 18.0222 20.3466 18.6889 20.4766C18.8495 20.5044 19.0142 20.4969 19.1715 20.4545C19.3288 20.412 19.475 20.3358 19.5999 20.2311C19.7247 20.1263 19.8252 19.9956 19.8943 19.848C19.9634 19.7005 19.9995 19.5396 20 19.3766V10.21C19.9999 9.95043 19.9086 9.69919 19.7421 9.50015C19.5755 9.30111 19.3443 9.16693 19.0889 9.12107Z" fill="#B2A1FF"/>
<path d="M13.4078 7.28441C13.3256 7.23552 13.2378 7.20886 13.1545 7.1633C12.756 7.605 12.2694 7.95844 11.7262 8.20088C11.1829 8.44333 10.5949 8.56943 10 8.57108C9.40578 8.57003 8.81833 8.44463 8.27544 8.20294C7.73255 7.96125 7.24626 7.60863 6.84781 7.16774C6.01113 7.6098 5.27967 8.22718 4.70337 8.97774C6.56559 9.17108 8.37337 9.73885 10 10.6889C11.6182 9.74294 13.4207 9.15562 15.2856 8.96663C14.7727 8.29121 14.1353 7.7202 13.4078 7.28441Z" fill="#1E0589"/>
</svg>
