<svg width="22" height="23" viewBox="0 0 22 23" fill="none" xmlns="http://www.w3.org/2000/svg">
<path d="M16.703 13.6345L14.277 15.8645C13.0294 16.9521 11.5636 17.7602 9.97801 18.2345L10.622 21.2385C10.6549 21.3918 10.7234 21.5352 10.822 21.6572C10.9205 21.7791 11.0464 21.8761 11.1894 21.9405C11.3323 22.0048 11.4884 22.0346 11.6451 22.0275C11.8017 22.0204 11.9545 21.9766 12.091 21.8995L15.996 19.6975C16.5457 19.3636 16.9752 18.8636 17.2223 18.2698C17.4694 17.6759 17.5215 17.0189 17.371 16.3935L16.703 13.6345ZM6.23201 7.78853L8.32001 5.30853L5.71601 4.68053C5.08276 4.45958 4.39095 4.47528 3.76837 4.72471C3.14579 4.97415 2.63452 5.44047 2.32901 6.03753L0.129008 9.93753C0.0519805 10.0741 0.00814126 10.2268 0.00102943 10.3835C-0.0060824 10.5401 0.0237324 10.6962 0.088067 10.8392C0.152402 10.9821 0.249453 11.108 0.371387 11.2065C0.493321 11.3051 0.63672 11.3736 0.790008 11.4065L3.86301 12.0655C4.37252 10.5018 5.17665 9.04997 6.23201 7.78853ZM15.7 7.82853C15.9967 7.82853 16.2867 7.74056 16.5334 7.57574C16.78 7.41091 16.9723 7.17665 17.0858 6.90256C17.1994 6.62847 17.2291 6.32687 17.1712 6.0359C17.1133 5.74492 16.9704 5.47765 16.7607 5.26787C16.5509 5.05809 16.2836 4.91523 15.9926 4.85735C15.7017 4.79948 15.4001 4.82918 15.126 4.94271C14.8519 5.05624 14.6176 5.2485 14.4528 5.49518C14.288 5.74185 14.2 6.03186 14.2 6.32853C14.2 6.72636 14.358 7.10789 14.6393 7.38919C14.9207 7.6705 15.3022 7.82853 15.7 7.82853Z" fill="#1E0589"/>
<path d="M21.5671 1.07458C21.5221 0.903229 21.4323 0.746916 21.307 0.621637C21.1817 0.496358 21.0254 0.406612 20.8541 0.361582C18.8029 -0.171438 16.6428 -0.114156 14.6227 0.526828C12.6026 1.16781 10.8047 2.36642 9.43608 3.98458L6.23208 7.78858C4.63177 9.69712 3.61646 12.0271 3.30808 14.4986C3.28812 14.6505 3.30335 14.805 3.35259 14.9502C3.40183 15.0953 3.48377 15.2272 3.59208 15.3356L6.69208 18.4356C6.78504 18.5286 6.89542 18.6023 7.0169 18.6526C7.13839 18.7029 7.2686 18.7287 7.40008 18.7286C7.42808 18.7286 7.45708 18.7276 7.48608 18.7246C9.99586 18.5172 12.3743 17.5154 14.2761 15.8646L17.9401 12.4966C19.5638 11.1313 20.7666 9.33311 21.4085 7.31111C22.0504 5.28911 22.106 3.12642 21.5671 1.07458ZM15.7001 7.82858C15.4034 7.82858 15.1134 7.74061 14.8667 7.57579C14.6201 7.41096 14.4278 7.1767 14.3143 6.90261C14.2007 6.62852 14.171 6.32692 14.2289 6.03595C14.2868 5.74498 14.4296 5.4777 14.6394 5.26792C14.8492 5.05814 15.1165 4.91528 15.4074 4.8574C15.6984 4.79953 16 4.82923 16.2741 4.94276C16.5482 5.05629 16.7825 5.24855 16.9473 5.49523C17.1121 5.7419 17.2001 6.03191 17.2001 6.32858C17.2001 6.72641 17.042 7.10794 16.7607 7.38924C16.4794 7.67055 16.0979 7.82858 15.7001 7.82858Z" fill="#7D64EC"/>
</svg>
